<?xml version="1.0" encoding="UTF-8" standalone="no"?><!-- Generator: Gravit.io --><svg xmlns="http://www.w3.org/2000/svg" xmlns:xlink="http://www.w3.org/1999/xlink" style="isolation:isolate" viewBox="0 0 450.899 166.271" width="450.899pt" height="166.271pt"><defs><clipPath id="_clipPath_KySuQuNaET2rVxLTrGxBXYucAcnB3bgZ"><rect width="450.899" height="166.271"/></clipPath></defs><g clip-path="url(#_clipPath_KySuQuNaET2rVxLTrGxBXYucAcnB3bgZ)"><path d=" M 343.701 3.238 C 327.654 -3.543 309.951 3.674 299.357 21.314 C 294.07 19.592 288.569 18.946 283.084 19.402 C 262.564 14.311 241.478 25.415 230.674 47.002 C 225.437 44.311 219.674 43.157 213.918 43.644 C 210.227 43.453 206.529 43.934 202.967 45.07 C 193.782 23.933 173.71 12.632 153.791 17.381 C 138.238 14.283 122.359 20.904 111.859 34.865 C 104.115 30.068 94.773 27.483 85.182 27.482 C 79.064 27.483 73.011 28.535 67.387 30.576 C 62.961 14.906 53.047 4.252 35.129 4.252 C 9.162 4.252 0 26.621 0 54.217 L 0 166.271 L 450.606 166.271 L 450.606 57.73 C 450.867 53.164 450.904 48.737 450.898 44.752 C 450.868 23.014 430.082 12.751 418.219 13.512 C 408.424 14.139 399.104 19.228 392.379 26.99 C 382.907 4.355 362.328 -5.687 343.701 3.238 L 343.701 3.238 Z " fill="rgb(249,249,249)"/></g></svg>