<?xml version="1.0" encoding="UTF-8" standalone="no"?><!-- Generator: Gravit.io --><svg xmlns="http://www.w3.org/2000/svg" xmlns:xlink="http://www.w3.org/1999/xlink" style="isolation:isolate" viewBox="0 0 214.117 134.949" width="214.117pt" height="134.949pt"><defs><clipPath id="_clipPath_8JeTO6nDRp0JVvseKN9CRwN0azRlNoEo"><rect width="214.117" height="134.949"/></clipPath></defs><g clip-path="url(#_clipPath_8JeTO6nDRp0JVvseKN9CRwN0azRlNoEo)"><path d=" M 69.703 0 C 44.724 0.001 24.475 17.17 24.475 38.35 C 24.475 42.288 25.19 46.202 26.596 49.955 C 11.727 50.57 0 62.41 0 76.807 C 0 90.792 11.087 102.44 25.494 103.592 C 25.406 104.297 25.362 105.005 25.361 105.713 C 25.361 111.866 28.689 117.767 34.614 122.117 C 40.539 126.468 48.576 128.912 56.955 128.912 C 64.359 128.911 71.528 127.001 77.209 123.516 C 85.586 126.281 94.703 127.713 103.93 127.713 C 114.297 127.713 124.508 125.905 133.678 122.445 C 136.466 129.904 144.416 134.949 153.383 134.949 C 158.882 134.949 164.156 133.038 168.044 129.635 C 171.933 126.231 174.117 121.616 174.117 116.803 C 196.209 116.803 214.117 103.438 214.117 86.951 C 214.118 70.465 196.209 57.1 174.117 57.1 C 168.972 57.099 163.875 57.84 159.106 59.281 C 158.43 58.446 157.717 57.626 156.969 56.822 C 156.755 45.699 144.022 36.761 128.387 36.76 C 125.25 36.759 122.135 37.126 119.166 37.846 C 117.759 37.598 116.34 37.385 114.912 37.207 C 114.184 16.481 94.158 0 69.703 0 L 69.703 0 Z " fill="rgb(210,232,232)"/></g></svg>