<?xml version="1.0" encoding="UTF-8" standalone="no"?><!-- Generator: Gravit.io --><svg xmlns="http://www.w3.org/2000/svg" xmlns:xlink="http://www.w3.org/1999/xlink" style="isolation:isolate" viewBox="0 0 183.123 65.431" width="183.123pt" height="65.431pt"><defs><clipPath id="_clipPath_i9YpDupHknPHFbGxdo9FXMaAWs2VlWwt"><rect width="183.123" height="65.431"/></clipPath></defs><g clip-path="url(#_clipPath_i9YpDupHknPHFbGxdo9FXMaAWs2VlWwt)"><path d=" M 102.981 0 C 94.069 0 85.48 3.525 78.5 8.885 C 74.341 6.027 68.89 4.44 63.231 4.44 C 57.259 4.44 51.532 6.206 47.309 9.351 C 43.087 12.496 40.715 16.762 40.715 21.209 C 40.715 21.594 40.732 21.979 40.768 22.363 C 24.314 24.796 5.544 31.224 5.342 41.979 C 5.319 43.202 5.629 44.498 6.242 45.818 C 2.349 47.396 0 50.097 0 52.994 C 0 57.719 6.135 61.549 13.703 61.549 C 17.415 61.549 20.969 60.609 23.551 58.943 C 32.258 62.149 43.587 63.647 56.437 61.461 C 62.035 60.509 66.371 59.022 69.674 57.033 C 75.662 62.723 85.663 65.864 100.961 65.383 C 119.476 64.801 128.988 62.259 133.891 57.842 C 135.038 57.953 136.235 58.029 137.535 58.029 C 144.177 58.029 151.427 56.815 157.283 54.34 C 160.125 56.222 163.811 57.263 167.633 57.264 C 171.741 57.264 175.681 56.062 178.586 53.921 C 181.491 51.781 183.123 48.878 183.123 45.852 C 183.123 39.664 176.431 34.604 168.035 34.443 C 165.765 25.093 158.49 17.045 146.879 17.045 C 142.584 17.045 138.283 18.036 134.369 19.736 C 128.36 8.766 117.059 0 102.981 0 L 102.981 0 Z " fill="rgb(210,232,232)"/></g></svg>