<?xml version="1.0" encoding="UTF-8" standalone="no"?><!-- Generator: Gravit.io --><svg xmlns="http://www.w3.org/2000/svg" xmlns:xlink="http://www.w3.org/1999/xlink" style="isolation:isolate" viewBox="0 0 116.49 700.046" width="116.49pt" height="700.046pt"><defs><clipPath id="_clipPath_esta58Q3yNEuuZqwmj48TrZHMUnKeUhS"><rect width="116.49" height="700.046"/></clipPath></defs><g clip-path="url(#_clipPath_esta58Q3yNEuuZqwmj48TrZHMUnKeUhS)"><g><linearGradient id="_lgradient_428" x1="-3.687826011627646" y1="2.295746734254969" x2="-3.686618995846063" y2="2.295746734254969" gradientTransform="matrix(-116.49,0,0,-700.045,116.49,700.046)" gradientUnits="userSpaceOnUse"><stop offset="0%" stop-opacity="1" style="stop-color:rgb(44,168,46)"/></linearGradient><path d=" M 116.49 0.001 L 116.49 56.155 L 106.459 56.155 L 106.459 700.046 L 10.031 700.046 L 10.031 56.155 L 0 56.155 L 0 0.001 L 116.49 0.001 Z " fill="url(#_lgradient_428)"/><linearGradient id="_lgradient_429" x1="0.5000036853328034" y1="1.0000012656947526" x2="0.5000036853328035" y2="8.772782820187786e-7" gradientTransform="matrix(-29.304,0,0,-50.611,29.304,55.816)" gradientUnits="userSpaceOnUse"><stop offset="0%" stop-opacity="1" style="stop-color:rgb(27,148,28)"/></linearGradient><path d=" M 0 5.205 L 0 55.816 L 29.304 55.816 L 29.304 5.205 L 0 5.205 Z " fill="url(#_lgradient_429)"/><linearGradient id="_lgradient_430" x1="0.4999966969237022" y1="-0.000004525392981236109" x2="0.499996696923702" y2="0.9999947331140824" gradientTransform="matrix(-13.748,0,0,-50.704,13.748,55.816)" gradientUnits="userSpaceOnUse"><stop offset="0%" stop-opacity="1" style="stop-color:rgb(41,160,44)"/></linearGradient><path d=" M 0 55.816 L 0 5.112 L 13.748 5.112 L 13.748 55.816 L 0 55.816 Z " fill="url(#_lgradient_430)"/><linearGradient id="_lgradient_431" x1="0.4999996239409743" y1="1.0000011273086433" x2="0.49999962394097436" y2="0.0000010595764894372195" gradientTransform="matrix(-29.845,0,0,-647.814,39.755,699.771)" gradientUnits="userSpaceOnUse"><stop offset="0%" stop-opacity="1" style="stop-color:rgb(27,148,28)"/></linearGradient><path d=" M 9.91 51.957 L 9.91 699.771 L 39.755 699.771 L 39.755 51.957 L 9.91 51.957 Z " fill="url(#_lgradient_431)"/><linearGradient id="_lgradient_432" x1="0.4999991402834567" y1="0.9999998443593359" x2="0.49999914028345677" y2="-1.7270978447392338e-7" gradientTransform="matrix(-12.702,0,0,-642.626,22.612,699.77)" gradientUnits="userSpaceOnUse"><stop offset="0%" stop-opacity="1" style="stop-color:rgb(41,160,44)"/></linearGradient><path d=" M 9.91 57.144 L 9.91 699.77 L 22.612 699.77 L 22.612 57.144 L 9.91 57.144 Z " fill="url(#_lgradient_432)"/><linearGradient id="_lgradient_433" x1="0.5000162478704002" y1="1.0000013102647571" x2="0.5000162478704003" y2="0.0000012455415614454068" gradientTransform="matrix(-38.028,0,0,-48.635,116.489,53.444)" gradientUnits="userSpaceOnUse"><stop offset="0%" stop-opacity="1" style="stop-color:rgb(96,214,97)"/></linearGradient><path d=" M 78.462 4.809 L 78.462 53.444 L 116.489 53.444 L 116.489 4.809 L 78.462 4.809 Z " fill="url(#_lgradient_433)"/><linearGradient id="_lgradient_434" x1="0" y1="0.5" x2="1" y2="0.5" gradientTransform="matrix(-12.919,0,0,-47.232,116.489,52.444)" gradientUnits="userSpaceOnUse"><stop offset="0%" stop-opacity="1" style="stop-color:rgb(162,251,162)"/></linearGradient><path d=" M 103.57 5.212 L 103.57 52.444 L 116.489 52.444 L 116.489 5.212 L 103.57 5.212 Z " fill="url(#_lgradient_434)"/><linearGradient id="_lgradient_435" x1="0.500017805618004" y1="0.9999996490655135" x2="0.5000178056180041" y2="-4.375118570765224e-7" gradientTransform="matrix(-38.046,0,0,-640.844,106.199,699.495)" gradientUnits="userSpaceOnUse"><stop offset="0%" stop-opacity="1" style="stop-color:rgb(96,214,97)"/></linearGradient><path d=" M 68.154 58.651 L 68.154 699.495 L 106.199 699.495 L 106.199 58.651 L 68.154 58.651 Z " fill="url(#_lgradient_435)"/><linearGradient id="_lgradient_436" x1="0.4999935907831734" y1="1.0000000032544931" x2="0.49999359078317346" y2="6.811883401791619e-8" gradientTransform="matrix(-14.891,0,0,-639.798,106.365,698.448)" gradientUnits="userSpaceOnUse"><stop offset="0%" stop-opacity="1" style="stop-color:rgb(162,251,162)"/></linearGradient><path d=" M 91.474 58.651 L 91.474 698.448 L 106.365 698.448 L 106.365 58.651 L 91.474 58.651 Z " fill="url(#_lgradient_436)"/><linearGradient id="_lgradient_437" x1="4.440892098500626e-16" y1="0.4999964366398899" x2="1.0000000000000013" y2="0.4999964366398899" gradientTransform="matrix(-116.489,0,0,-5.303,116.49,56.155)" gradientUnits="userSpaceOnUse"><stop offset="0%" stop-opacity="1" style="stop-color:rgb(27,148,28)"/></linearGradient><path d=" M 116.49 50.851 L 0.001 50.851 L 0.001 56.155 L 116.49 56.155 L 116.49 50.851 Z " fill="url(#_lgradient_437)"/><linearGradient id="_lgradient_438" x1="4.440892098500626e-16" y1="0.5000108778418166" x2="1.0000000000000013" y2="0.5000108778418166" gradientTransform="matrix(-116.489,0,0,-5.212,116.489,5.212)" gradientUnits="userSpaceOnUse"><stop offset="0%" stop-opacity="1" style="stop-color:rgb(162,251,162)"/></linearGradient><path d=" M 116.489 0 L 0 0 L 0 5.212 L 116.489 5.212 L 116.489 0 Z " fill="url(#_lgradient_438)"/></g></g></svg>