<?xml version="1.0" encoding="UTF-8" standalone="no"?><!-- Generator: Gravit.io --><svg xmlns="http://www.w3.org/2000/svg" xmlns:xlink="http://www.w3.org/1999/xlink" style="isolation:isolate" viewBox="0 0 116.49 700.54" width="116.49pt" height="700.54pt"><defs><clipPath id="_clipPath_VenR58cKFl9w1IxYslL3n6ksi0iVByiT"><rect width="116.49" height="700.54"/></clipPath></defs><g clip-path="url(#_clipPath_VenR58cKFl9w1IxYslL3n6ksi0iVByiT)"><g><linearGradient id="_lgradient_439" x1="-3.687826011627646" y1="2.295746734254969" x2="-3.686618995846063" y2="2.295746734254969" gradientTransform="matrix(116.49,0,0,700.045,0,0)" gradientUnits="userSpaceOnUse"><stop offset="0%" stop-opacity="1" style="stop-color:rgb(44,168,46)"/></linearGradient><path d=" M 0 700.045 L 0 643.891 L 10.031 643.891 L 10.031 0 L 106.459 0 L 106.459 643.891 L 116.49 643.891 L 116.49 700.045 L 0 700.045 Z " fill="url(#_lgradient_439)"/><linearGradient id="_lgradient_440" x1="0.5000036853328034" y1="1.000000962383453" x2="0.5000036853328035" y2="4.7073587694512753e-7" gradientTransform="matrix(29.304,0,0,49.543,87.186,645.298)" gradientUnits="userSpaceOnUse"><stop offset="0%" stop-opacity="1" style="stop-color:rgb(27,148,28)"/></linearGradient><path d=" M 116.49 694.841 L 116.49 645.298 L 87.186 645.298 L 87.186 694.841 L 116.49 694.841 Z " fill="url(#_lgradient_440)"/><linearGradient id="_lgradient_441" x1="0.4999966969237022" y1="-0.000003964248346477461" x2="0.499996696923702" y2="0.9999952135678463" gradientTransform="matrix(13.748,0,0,49.175,102.742,645.758)" gradientUnits="userSpaceOnUse"><stop offset="0%" stop-opacity="1" style="stop-color:rgb(41,160,44)"/></linearGradient><path d=" M 116.49 645.758 L 116.49 694.934 L 102.742 694.934 L 102.742 645.758 L 116.49 645.758 Z " fill="url(#_lgradient_441)"/><linearGradient id="_lgradient_442" x1="0.4999996239409743" y1="1.0000006797915288" x2="0.49999962394097436" y2="5.480966931425968e-7" gradientTransform="matrix(29.845,0,0,648.705,76.736,0.275)" gradientUnits="userSpaceOnUse"><stop offset="0%" stop-opacity="1" style="stop-color:rgb(27,148,28)"/></linearGradient><path d=" M 106.58 648.98 L 106.58 0.275 L 76.736 0.275 L 76.736 648.98 L 106.58 648.98 Z " fill="url(#_lgradient_442)"/><linearGradient id="_lgradient_443" x1="0.4999991402834567" y1="0.9999998443593359" x2="0.49999914028345677" y2="-1.7270978447392338e-7" gradientTransform="matrix(12.702,0,0,642.626,93.878,0.275)" gradientUnits="userSpaceOnUse"><stop offset="0%" stop-opacity="1" style="stop-color:rgb(41,160,44)"/></linearGradient><path d=" M 106.58 642.901 L 106.58 0.275 L 93.878 0.275 L 93.878 642.901 L 106.58 642.901 Z " fill="url(#_lgradient_443)"/><linearGradient id="_lgradient_444" x1="0.5000162478704002" y1="0.999999811361505" x2="0.5000162478704003" y2="-1.7841117028183362e-8" gradientTransform="matrix(38.028,0,0,46.446,0.001,648.791)" gradientUnits="userSpaceOnUse"><stop offset="0%" stop-opacity="1" style="stop-color:rgb(96,214,97)"/></linearGradient><path d=" M 38.028 695.237 L 38.028 648.791 L 0.001 648.791 L 0.001 695.237 L 38.028 695.237 Z " fill="url(#_lgradient_444)"/><linearGradient id="_lgradient_445" x1="0" y1="0.5" x2="1" y2="0.5" gradientTransform="matrix(12.919,0,0,45.731,0.001,649.103)" gradientUnits="userSpaceOnUse"><stop offset="0%" stop-opacity="1" style="stop-color:rgb(162,251,162)"/></linearGradient><path d=" M 12.92 694.834 L 12.92 649.103 L 0.001 649.103 L 0.001 694.834 L 12.92 694.834 Z " fill="url(#_lgradient_445)"/><linearGradient id="_lgradient_446" x1="0.500017805618004" y1="0.9999996490655135" x2="0.5000178056180041" y2="-4.375118570765224e-7" gradientTransform="matrix(38.046,0,0,640.844,10.291,0.551)" gradientUnits="userSpaceOnUse"><stop offset="0%" stop-opacity="1" style="stop-color:rgb(96,214,97)"/></linearGradient><path d=" M 48.336 641.395 L 48.336 0.551 L 10.291 0.551 L 10.291 641.395 L 48.336 641.395 Z " fill="url(#_lgradient_446)"/><linearGradient id="_lgradient_447" x1="0.4999935907831734" y1="1.0000000032544931" x2="0.49999359078317346" y2="6.811883401791619e-8" gradientTransform="matrix(14.891,0,0,639.798,10.126,1.597)" gradientUnits="userSpaceOnUse"><stop offset="0%" stop-opacity="1" style="stop-color:rgb(162,251,162)"/></linearGradient><path d=" M 25.016 641.395 L 25.016 1.597 L 10.126 1.597 L 10.126 641.395 L 25.016 641.395 Z " fill="url(#_lgradient_447)"/><linearGradient id="_lgradient_448" x1="0" y1="0.5000035633601101" x2="1" y2="0.5000035633601101" gradientTransform="matrix(116.489,0,0,-5.303,0.001,700.54)" gradientUnits="userSpaceOnUse"><stop offset="0%" stop-opacity="1" style="stop-color:rgb(27,148,28)"/></linearGradient><path d=" M 0.001 700.54 L 116.49 700.54 L 116.49 695.237 L 0.001 695.237 L 0.001 700.54 Z " fill="url(#_lgradient_448)"/><linearGradient id="_lgradient_449" x1="4.440892098500626e-16" y1="0.5000108778418451" x2="1.0000000000000004" y2="0.5000108778418451" gradientTransform="matrix(116.489,0,0,5.212,0.001,643.891)" gradientUnits="userSpaceOnUse"><stop offset="0%" stop-opacity="1" style="stop-color:rgb(162,251,162)"/></linearGradient><path d=" M 0.001 649.103 L 116.49 649.103 L 116.49 643.891 L 0.001 643.891 L 0.001 649.103 Z " fill="url(#_lgradient_449)"/></g></g></svg>